<mxfile host="app.diagrams.net" modified="2024-03-04T16:17:28.791Z" agent="Mozilla/5.0 (Windows NT 10.0; Win64; x64; rv:123.0) Gecko/20100101 Firefox/123.0" etag="QrQOApGSG_iPtHQhwdv3" version="24.0.1" type="google">
  <diagram id="C5RBs43oDa-KdzZeNtuy" name="Page-1">
    <mxGraphModel grid="1" page="1" gridSize="10" guides="1" tooltips="1" connect="1" arrows="1" fold="1" pageScale="1" pageWidth="827" pageHeight="1169" math="0" shadow="0">
      <root>
        <mxCell id="WIyWlLk6GJQsqaUBKTNV-0" />
        <mxCell id="WIyWlLk6GJQsqaUBKTNV-1" parent="WIyWlLk6GJQsqaUBKTNV-0" />
        <mxCell id="WIyWlLk6GJQsqaUBKTNV-2" value="" style="rounded=0;html=1;jettySize=auto;orthogonalLoop=1;fontSize=11;endArrow=block;endFill=0;endSize=8;strokeWidth=1;shadow=0;labelBackgroundColor=none;edgeStyle=orthogonalEdgeStyle;exitX=0.6;exitY=0.8;exitDx=0;exitDy=0;exitPerimeter=0;" edge="1" parent="WIyWlLk6GJQsqaUBKTNV-1" source="PHEtFtPvAr5ocZ8-lKNc-1" target="WIyWlLk6GJQsqaUBKTNV-6">
          <mxGeometry relative="1" as="geometry">
            <mxPoint x="390" y="110" as="sourcePoint" />
          </mxGeometry>
        </mxCell>
        <mxCell id="WIyWlLk6GJQsqaUBKTNV-4" value="Yes" style="rounded=0;html=1;jettySize=auto;orthogonalLoop=1;fontSize=11;endArrow=block;endFill=0;endSize=8;strokeWidth=1;shadow=0;labelBackgroundColor=none;edgeStyle=orthogonalEdgeStyle;entryX=0.5;entryY=0;entryDx=0;entryDy=0;" edge="1" parent="WIyWlLk6GJQsqaUBKTNV-1" source="WIyWlLk6GJQsqaUBKTNV-6" target="PHEtFtPvAr5ocZ8-lKNc-2">
          <mxGeometry y="20" relative="1" as="geometry">
            <mxPoint as="offset" />
          </mxGeometry>
        </mxCell>
        <mxCell id="WIyWlLk6GJQsqaUBKTNV-5" value="No" style="edgeStyle=orthogonalEdgeStyle;rounded=0;html=1;jettySize=auto;orthogonalLoop=1;fontSize=11;endArrow=block;endFill=0;endSize=8;strokeWidth=1;shadow=0;labelBackgroundColor=none;entryX=0;entryY=0.5;entryDx=0;entryDy=0;" edge="1" parent="WIyWlLk6GJQsqaUBKTNV-1" source="WIyWlLk6GJQsqaUBKTNV-6" target="PHEtFtPvAr5ocZ8-lKNc-19">
          <mxGeometry y="10" relative="1" as="geometry">
            <mxPoint as="offset" />
            <mxPoint x="490" y="200.0000000000001" as="targetPoint" />
          </mxGeometry>
        </mxCell>
        <mxCell id="WIyWlLk6GJQsqaUBKTNV-6" value="Ligne7 exists ?" style="rhombus;whiteSpace=wrap;html=1;shadow=0;fontFamily=Helvetica;fontSize=12;align=center;strokeWidth=1;spacing=6;spacingTop=-4;" vertex="1" parent="WIyWlLk6GJQsqaUBKTNV-1">
          <mxGeometry x="330" y="160" width="100" height="80" as="geometry" />
        </mxCell>
        <mxCell id="PHEtFtPvAr5ocZ8-lKNc-0" value="ControleAdresse(ligne1, ligne2, ligne3, ligne4, ligne5, ligne6, ligne7)" style="text;html=1;align=center;verticalAlign=middle;whiteSpace=wrap;rounded=0;" vertex="1" parent="WIyWlLk6GJQsqaUBKTNV-1">
          <mxGeometry x="180" y="40" width="430" height="30" as="geometry" />
        </mxCell>
        <mxCell id="PHEtFtPvAr5ocZ8-lKNc-1" value="" style="shape=waypoint;sketch=0;fillStyle=solid;size=6;pointerEvents=1;points=[];fillColor=none;resizable=0;rotatable=0;perimeter=centerPerimeter;snapToPoint=1;" vertex="1" parent="WIyWlLk6GJQsqaUBKTNV-1">
          <mxGeometry x="380" y="70" width="20" height="20" as="geometry" />
        </mxCell>
        <mxCell id="PHEtFtPvAr5ocZ8-lKNc-5" style="edgeStyle=orthogonalEdgeStyle;rounded=0;orthogonalLoop=1;jettySize=auto;html=1;" edge="1" parent="WIyWlLk6GJQsqaUBKTNV-1" source="PHEtFtPvAr5ocZ8-lKNc-2" target="PHEtFtPvAr5ocZ8-lKNc-23">
          <mxGeometry relative="1" as="geometry" />
        </mxCell>
        <mxCell id="PHEtFtPvAr5ocZ8-lKNc-2" value="ControleMascadiaPays()" style="rounded=1;whiteSpace=wrap;html=1;fontSize=12;glass=0;strokeWidth=1;shadow=0;" vertex="1" parent="WIyWlLk6GJQsqaUBKTNV-1">
          <mxGeometry x="280" y="300" width="200" height="40" as="geometry" />
        </mxCell>
        <mxCell id="PHEtFtPvAr5ocZ8-lKNc-3" value="Pays ?" style="rhombus;whiteSpace=wrap;html=1;shadow=0;fontFamily=Helvetica;fontSize=12;align=center;strokeWidth=1;spacing=6;spacingTop=-4;" vertex="1" parent="WIyWlLk6GJQsqaUBKTNV-1">
          <mxGeometry x="330" y="510" width="100" height="80" as="geometry" />
        </mxCell>
        <mxCell id="PHEtFtPvAr5ocZ8-lKNc-37" style="edgeStyle=orthogonalEdgeStyle;rounded=0;orthogonalLoop=1;jettySize=auto;html=1;entryX=0.5;entryY=0;entryDx=0;entryDy=0;" edge="1" parent="WIyWlLk6GJQsqaUBKTNV-1" source="PHEtFtPvAr5ocZ8-lKNc-6" target="PHEtFtPvAr5ocZ8-lKNc-29">
          <mxGeometry relative="1" as="geometry" />
        </mxCell>
        <mxCell id="PHEtFtPvAr5ocZ8-lKNc-6" value="ControleNormad()" style="rounded=1;whiteSpace=wrap;html=1;fontSize=12;glass=0;strokeWidth=1;shadow=0;" vertex="1" parent="WIyWlLk6GJQsqaUBKTNV-1">
          <mxGeometry x="540" y="530" width="200" height="40" as="geometry" />
        </mxCell>
        <mxCell id="PHEtFtPvAr5ocZ8-lKNc-8" value="&lt;div&gt;-blocAdress == adresse vide&lt;br&gt;&lt;/div&gt;" style="rounded=1;whiteSpace=wrap;html=1;fontSize=12;glass=0;strokeWidth=1;shadow=0;" vertex="1" parent="WIyWlLk6GJQsqaUBKTNV-1">
          <mxGeometry x="50" y="665" width="220" height="40" as="geometry" />
        </mxCell>
        <mxCell id="PHEtFtPvAr5ocZ8-lKNc-9" value="Pays Inconnu" style="edgeStyle=orthogonalEdgeStyle;rounded=0;html=1;jettySize=auto;orthogonalLoop=1;fontSize=11;endArrow=block;endFill=0;endSize=8;strokeWidth=1;shadow=0;labelBackgroundColor=none;exitX=0;exitY=0.5;exitDx=0;exitDy=0;entryX=0.424;entryY=-0.022;entryDx=0;entryDy=0;entryPerimeter=0;" edge="1" parent="WIyWlLk6GJQsqaUBKTNV-1" source="PHEtFtPvAr5ocZ8-lKNc-3" target="PHEtFtPvAr5ocZ8-lKNc-8">
          <mxGeometry x="-0.0691" y="-10" relative="1" as="geometry">
            <mxPoint as="offset" />
            <mxPoint x="214.75" y="560" as="sourcePoint" />
            <mxPoint x="244.75" y="620" as="targetPoint" />
          </mxGeometry>
        </mxCell>
        <mxCell id="PHEtFtPvAr5ocZ8-lKNc-10" value="Pays Etranger" style="edgeStyle=orthogonalEdgeStyle;rounded=0;html=1;jettySize=auto;orthogonalLoop=1;fontSize=11;endArrow=block;endFill=0;endSize=8;strokeWidth=1;shadow=0;labelBackgroundColor=none;exitX=0.5;exitY=1;exitDx=0;exitDy=0;" edge="1" parent="WIyWlLk6GJQsqaUBKTNV-1" source="PHEtFtPvAr5ocZ8-lKNc-3" target="PHEtFtPvAr5ocZ8-lKNc-13">
          <mxGeometry y="10" relative="1" as="geometry">
            <mxPoint as="offset" />
            <mxPoint x="409.5" y="570" as="sourcePoint" />
            <mxPoint x="380" y="640" as="targetPoint" />
          </mxGeometry>
        </mxCell>
        <mxCell id="PHEtFtPvAr5ocZ8-lKNc-12" value="Pays == France" style="edgeStyle=orthogonalEdgeStyle;rounded=0;html=1;jettySize=auto;orthogonalLoop=1;fontSize=11;endArrow=block;endFill=0;endSize=8;strokeWidth=1;shadow=0;labelBackgroundColor=none;exitX=1;exitY=0.5;exitDx=0;exitDy=0;entryX=0;entryY=0.5;entryDx=0;entryDy=0;" edge="1" parent="WIyWlLk6GJQsqaUBKTNV-1" source="PHEtFtPvAr5ocZ8-lKNc-3" target="PHEtFtPvAr5ocZ8-lKNc-6">
          <mxGeometry x="-0.3333" y="20" relative="1" as="geometry">
            <mxPoint as="offset" />
            <mxPoint x="470" y="550" as="sourcePoint" />
            <mxPoint x="570" y="550" as="targetPoint" />
            <Array as="points" />
          </mxGeometry>
        </mxCell>
        <mxCell id="PHEtFtPvAr5ocZ8-lKNc-16" style="edgeStyle=orthogonalEdgeStyle;rounded=0;orthogonalLoop=1;jettySize=auto;html=1;exitX=0.5;exitY=1;exitDx=0;exitDy=0;entryX=0.5;entryY=0;entryDx=0;entryDy=0;" edge="1" parent="WIyWlLk6GJQsqaUBKTNV-1" source="PHEtFtPvAr5ocZ8-lKNc-13" target="PHEtFtPvAr5ocZ8-lKNc-15">
          <mxGeometry relative="1" as="geometry" />
        </mxCell>
        <mxCell id="PHEtFtPvAr5ocZ8-lKNc-13" value="Another ligne exists ?" style="rhombus;whiteSpace=wrap;html=1;shadow=0;fontFamily=Helvetica;fontSize=12;align=center;strokeWidth=1;spacing=6;spacingTop=-4;" vertex="1" parent="WIyWlLk6GJQsqaUBKTNV-1">
          <mxGeometry x="330" y="645" width="100" height="80" as="geometry" />
        </mxCell>
        <mxCell id="PHEtFtPvAr5ocZ8-lKNc-15" value="- restituer blocAdresse par Saisi majiscul" style="rounded=1;whiteSpace=wrap;html=1;fontSize=12;glass=0;strokeWidth=1;shadow=0;" vertex="1" parent="WIyWlLk6GJQsqaUBKTNV-1">
          <mxGeometry x="260" y="760" width="240" height="40" as="geometry" />
        </mxCell>
        <mxCell id="PHEtFtPvAr5ocZ8-lKNc-19" value="Another ligne exists ?" style="rhombus;whiteSpace=wrap;html=1;shadow=0;fontFamily=Helvetica;fontSize=12;align=center;strokeWidth=1;spacing=6;spacingTop=-4;" vertex="1" parent="WIyWlLk6GJQsqaUBKTNV-1">
          <mxGeometry x="590" y="160" width="100" height="80" as="geometry" />
        </mxCell>
        <mxCell id="PHEtFtPvAr5ocZ8-lKNc-22" value="&lt;div&gt;- code 31 et feu -4... sur toute les lignes 1-6&lt;/div&gt;" style="rounded=1;whiteSpace=wrap;html=1;fontSize=12;glass=0;strokeWidth=1;shadow=0;" vertex="1" parent="WIyWlLk6GJQsqaUBKTNV-1">
          <mxGeometry x="50" y="840" width="420" height="40" as="geometry" />
        </mxCell>
        <mxCell id="PHEtFtPvAr5ocZ8-lKNc-24" style="edgeStyle=orthogonalEdgeStyle;rounded=0;orthogonalLoop=1;jettySize=auto;html=1;entryX=0.5;entryY=0;entryDx=0;entryDy=0;" edge="1" parent="WIyWlLk6GJQsqaUBKTNV-1" source="PHEtFtPvAr5ocZ8-lKNc-23" target="PHEtFtPvAr5ocZ8-lKNc-3">
          <mxGeometry relative="1" as="geometry" />
        </mxCell>
        <mxCell id="PHEtFtPvAr5ocZ8-lKNc-23" value="Set ligne7 codesEtMessage" style="rounded=1;whiteSpace=wrap;html=1;fontSize=12;glass=0;strokeWidth=1;shadow=0;" vertex="1" parent="WIyWlLk6GJQsqaUBKTNV-1">
          <mxGeometry x="280" y="410" width="200" height="40" as="geometry" />
        </mxCell>
        <mxCell id="PHEtFtPvAr5ocZ8-lKNc-26" style="edgeStyle=orthogonalEdgeStyle;rounded=0;orthogonalLoop=1;jettySize=auto;html=1;entryX=0.802;entryY=0.033;entryDx=0;entryDy=0;entryPerimeter=0;" edge="1" parent="WIyWlLk6GJQsqaUBKTNV-1" source="PHEtFtPvAr5ocZ8-lKNc-15" target="PHEtFtPvAr5ocZ8-lKNc-22">
          <mxGeometry relative="1" as="geometry" />
        </mxCell>
        <mxCell id="PHEtFtPvAr5ocZ8-lKNc-27" style="edgeStyle=orthogonalEdgeStyle;rounded=0;orthogonalLoop=1;jettySize=auto;html=1;entryX=0.214;entryY=0;entryDx=0;entryDy=0;entryPerimeter=0;" edge="1" parent="WIyWlLk6GJQsqaUBKTNV-1" source="PHEtFtPvAr5ocZ8-lKNc-8" target="PHEtFtPvAr5ocZ8-lKNc-22">
          <mxGeometry relative="1" as="geometry" />
        </mxCell>
        <mxCell id="PHEtFtPvAr5ocZ8-lKNc-38" style="edgeStyle=orthogonalEdgeStyle;rounded=0;orthogonalLoop=1;jettySize=auto;html=1;" edge="1" parent="WIyWlLk6GJQsqaUBKTNV-1" source="PHEtFtPvAr5ocZ8-lKNc-29" target="PHEtFtPvAr5ocZ8-lKNc-30">
          <mxGeometry relative="1" as="geometry" />
        </mxCell>
        <mxCell id="PHEtFtPvAr5ocZ8-lKNc-29" value="Set blocAdresse 2-6 par n9Sortie" style="rounded=1;whiteSpace=wrap;html=1;fontSize=12;glass=0;strokeWidth=1;shadow=0;" vertex="1" parent="WIyWlLk6GJQsqaUBKTNV-1">
          <mxGeometry x="540" y="610" width="200" height="40" as="geometry" />
        </mxCell>
        <mxCell id="PHEtFtPvAr5ocZ8-lKNc-30" value="Set codesEtMessage ligne2-6 par n9Sortie" style="rounded=1;whiteSpace=wrap;html=1;fontSize=12;glass=0;strokeWidth=1;shadow=0;" vertex="1" parent="WIyWlLk6GJQsqaUBKTNV-1">
          <mxGeometry x="495" y="685" width="290" height="40" as="geometry" />
        </mxCell>
        <mxCell id="PHEtFtPvAr5ocZ8-lKNc-36" style="edgeStyle=orthogonalEdgeStyle;rounded=0;orthogonalLoop=1;jettySize=auto;html=1;" edge="1" parent="WIyWlLk6GJQsqaUBKTNV-1" source="PHEtFtPvAr5ocZ8-lKNc-31" target="PHEtFtPvAr5ocZ8-lKNc-6">
          <mxGeometry relative="1" as="geometry" />
        </mxCell>
        <mxCell id="PHEtFtPvAr5ocZ8-lKNc-31" value="Set default ligne7 codesEtMessage (FR)" style="rounded=1;whiteSpace=wrap;html=1;fontSize=12;glass=0;strokeWidth=1;shadow=0;" vertex="1" parent="WIyWlLk6GJQsqaUBKTNV-1">
          <mxGeometry x="540" y="320" width="200" height="40" as="geometry" />
        </mxCell>
        <mxCell id="PHEtFtPvAr5ocZ8-lKNc-32" value="- saisie et bloc adresse vide&lt;br&gt;- default code et messages.." style="rounded=1;whiteSpace=wrap;html=1;fontSize=12;glass=0;strokeWidth=1;shadow=0;" vertex="1" parent="WIyWlLk6GJQsqaUBKTNV-1">
          <mxGeometry x="750" y="180" width="200" height="40" as="geometry" />
        </mxCell>
        <mxCell id="PHEtFtPvAr5ocZ8-lKNc-34" value="No" style="edgeStyle=orthogonalEdgeStyle;rounded=0;html=1;jettySize=auto;orthogonalLoop=1;fontSize=11;endArrow=block;endFill=0;endSize=8;strokeWidth=1;shadow=0;labelBackgroundColor=none;entryX=0;entryY=0.5;entryDx=0;entryDy=0;exitX=1;exitY=0.5;exitDx=0;exitDy=0;" edge="1" parent="WIyWlLk6GJQsqaUBKTNV-1" source="PHEtFtPvAr5ocZ8-lKNc-19" target="PHEtFtPvAr5ocZ8-lKNc-32">
          <mxGeometry y="10" relative="1" as="geometry">
            <mxPoint as="offset" />
            <mxPoint x="700" y="200" as="sourcePoint" />
            <mxPoint x="750" y="250" as="targetPoint" />
          </mxGeometry>
        </mxCell>
        <mxCell id="PHEtFtPvAr5ocZ8-lKNc-35" value="Yes" style="rounded=0;html=1;jettySize=auto;orthogonalLoop=1;fontSize=11;endArrow=block;endFill=0;endSize=8;strokeWidth=1;shadow=0;labelBackgroundColor=none;edgeStyle=orthogonalEdgeStyle;exitX=0.5;exitY=1;exitDx=0;exitDy=0;" edge="1" parent="WIyWlLk6GJQsqaUBKTNV-1" source="PHEtFtPvAr5ocZ8-lKNc-19" target="PHEtFtPvAr5ocZ8-lKNc-31">
          <mxGeometry y="20" relative="1" as="geometry">
            <mxPoint as="offset" />
            <mxPoint x="580" y="260" as="sourcePoint" />
            <mxPoint x="390" y="310" as="targetPoint" />
          </mxGeometry>
        </mxCell>
      </root>
    </mxGraphModel>
  </diagram>
</mxfile>
